<?xml version="1.0" encoding="utf-8"?>
<!-- Generator: Adobe Illustrator 24.0.2, SVG Export Plug-In . SVG Version: 6.00 Build 0)  -->
<svg fill="#4399CE" version="1.0" id="Capa_1" xmlns="http://www.w3.org/2000/svg" xmlns:xlink="http://www.w3.org/1999/xlink" x="0px" y="0px"
	 viewBox="0 0 387.32 387.32" style="enable-background:new 0 0 387.32 387.32;" xml:space="preserve">
<g>
	<path d="M2.03,355.33c0-107.79,0-215.58,0-323.37c0.21-0.57,0.49-1.13,0.63-1.72C6.77,13,19.44,2.79,36.95,2.78
		c104.52-0.02,209.03-0.03,313.55,0c20.16,0.01,34.76,14.53,34.77,34.65c0.04,104.14,0.03,208.28-0.03,312.42
		c0,3.2-0.38,6.5-1.19,9.6c-4.06,15.5-17.24,25.07-34.29,25.07c-83.44,0.01-166.88,0-250.31,0c-21.2,0-42.41,0.07-63.61-0.03
		c-14.79-0.07-27.57-9.37-32.09-23.09C3.08,359.41,2.6,357.36,2.03,355.33z M362.83,115.3c-113.01,0-225.56,0-338.34,0
		c0,1.73,0,3.21,0,4.69c0,75.96,0,151.92,0,227.88c0,10.27,3.94,14.2,14.23,14.2c103.27,0,206.55,0,309.82,0
		c10.32,0,14.28-3.92,14.28-14.16c0-76.08,0-152.17,0-228.25C362.83,118.3,362.83,116.95,362.83,115.3z M24.49,92.33
		c113.06,0,225.6,0,338.34,0c0-18.34,0.02-36.41-0.01-54.48c-0.01-8.18-4.52-12.6-12.81-12.62c-8.23-0.02-16.46,0-24.69,0
		c-95.91,0-191.81,0-287.72,0c-8.75,0-13.09,4.34-13.1,13.07c-0.01,6.11,0,12.22,0,18.33C24.49,68.46,24.49,80.29,24.49,92.33z"/>
	<path d="M238.55,160.95c-0.27,0.89-0.68,2.85-1.45,4.65c-22.08,51.62-44.19,103.23-66.33,154.82c-2.9,6.75-9.07,9.58-15.08,7.09
		c-6.14-2.54-8.44-9.08-5.48-16c22.09-51.62,44.21-103.23,66.34-154.83c2.54-5.92,7.54-8.85,12.94-7.76
		C234.64,149.98,238.48,154.61,238.55,160.95z"/>
	<path d="M88.21,238.59c6.15,4.92,11.95,9.57,17.75,14.22c8.76,7.01,17.53,13.99,26.27,21.02c5.91,4.76,6.98,11.48,2.76,16.71
		c-4.2,5.2-10.94,5.52-16.93,0.72c-17.91-14.32-35.82-28.64-53.7-42.99c-7.34-5.89-7.34-13.53-0.01-19.42
		c17.88-14.35,35.79-28.67,53.7-42.99c5.99-4.79,12.73-4.49,16.93,0.71c4.31,5.33,3.14,11.99-3.04,16.94
		c-13.32,10.68-26.66,21.33-39.99,32C90.81,236.42,89.7,237.36,88.21,238.59z"/>
	<path d="M299.16,238.57c-7.67-6.16-14.93-11.99-22.2-17.81c-7.3-5.84-14.62-11.65-21.89-17.52c-5.91-4.76-6.97-11.46-2.71-16.7
		c4.13-5.09,10.87-5.5,16.64-0.9c18.02,14.38,36.03,28.78,54.02,43.2c7.29,5.85,7.25,13.59-0.07,19.47
		c-17.89,14.35-35.8,28.67-53.72,42.97c-5.99,4.78-12.76,4.43-16.92-0.8c-4.2-5.27-3.1-11.9,2.85-16.68
		C269.62,262.2,284.13,250.61,299.16,238.57z"/>
	<path d="M295.1,47.68c10.71,0,21.42-0.02,32.13,0.01c7.27,0.02,12.33,4.61,12.37,11.14c0.04,6.55-5.01,11.28-12.22,11.29
		c-21.8,0.03-43.59,0.03-65.39,0c-7.18-0.01-12.25-4.8-12.18-11.33c0.06-6.38,5.08-11.07,12.04-11.1
		C272.93,47.65,284.02,47.69,295.1,47.68z"/>
	<path d="M58.97,47.69c6.07,0.03,11.14,5.11,11.16,11.17c0.02,6.21-5.25,11.4-11.45,11.26C52.62,70,47.63,64.82,47.7,58.77
		C47.78,52.71,52.91,47.67,58.97,47.69z"/>
	<path d="M115.04,58.73c0.1,6.06-4.88,11.25-10.94,11.4c-6.19,0.16-11.49-5.01-11.49-11.22c0-6.06,5.06-11.16,11.12-11.21
		C109.8,47.65,114.94,52.66,115.04,58.73z"/>
	<path d="M148.71,47.69c6.06-0.02,11.18,5.03,11.25,11.09c0.07,6.21-5.16,11.43-11.37,11.34c-6.06-0.09-11.09-5.22-11.06-11.28
		C137.56,52.79,142.65,47.71,148.71,47.69z"/>
</g>
<g>
	<path d="M-331.03,335.37c-3.27,8.96-9.21,14.24-19.2,14.15c-0.68-0.01-1.6,1.02-2.02,1.79c-0.68,1.24-0.87,2.76-1.57,3.99
		c-2.81,4.96-3.75,9.01,0.83,14.27c4.85,5.58,3.39,14.53-1.7,20.17c-3.75,4.16-7.69,8.18-11.89,11.88
		c-7.48,6.6-16.85,5.57-25.97-2.62c-4.35,1.72-8.83,3.38-13.19,5.32c-0.7,0.31-1.13,1.85-1.19,2.85
		c-0.74,11.42-7.79,18.12-19.23,18.16c-4.04,0.01-8.08,0.03-12.12,0c-10.29-0.09-17.6-6.75-18.22-17.02
		c-0.18-2.99-1.04-4.62-3.99-5.01c-0.25-0.03-0.49-0.17-0.72-0.29c-5.59-3.06-10.34-4.61-16.38,0.71
		c-5.24,4.62-14.02,2.76-19.45-2.17c-4.05-3.67-7.97-7.53-11.63-11.59c-6.31-7-6.23-16.89,0.25-23.73c1.97-2.08,2.29-3.62,0.82-6
		c-1.08-1.75-2.02-3.73-2.43-5.73c-0.86-4.17-3.08-5.25-7.29-5.19c-19.94,0.26-124.55,0.13-144.49,0.1
		c-5.33-0.01-8.67-2.79-8.97-7.26c-0.34-5,3-8.4,8.5-8.42c13.56-0.05,111.77-0.02,125.33-0.02c1.28,0,2.55,0,4.33,0
		c0-5-0.02-9.65,0-14.29c0.06-11.94,6.32-18.62,18.14-19.68c1.18-0.11,2.35-1.37,3.33-2.31c0.5-0.48,0.49-1.46,0.84-2.15
		c2.77-5.47,4.49-10.14-0.72-16.05c-4.75-5.4-2.99-14.31,2.04-19.79c3.7-4.03,7.57-7.92,11.61-11.61
		c6.85-6.25,16.74-6.12,23.75,0.35c1.97,1.82,3.34,2.09,5.71,0.83c3.43-1.82,7.14-3.09,10.67-4.57c0.36-2.63,0.38-5.29,1.13-7.74
		c2.17-7.11,6.99-11.72,14.46-12.46c5.94-0.59,11.99-0.55,17.96-0.18c9.05,0.56,15.54,6.98,16.21,16.04
		c0.25,3.41,1.31,5.28,4.66,5.81c0.63,0.1,1.27,0.36,1.82,0.69c4.95,2.99,9.29,4.02,14.27-0.87c2.34-2.3,6.92-2.31,11.02-3.51
		c0-25.43,0-51.68,0-78.27c-113.16,0-226.35,0-339.92,0c-0.06,1.39-0.18,2.76-0.18,4.14c-0.01,45.63,0,91.26-0.02,136.89
		c0,6.94,1.36,13.46,5.36,19.25c4.29,6.2,10.06,9.57,17.79,9.52c14.6-0.09,29.2-0.06,43.8,0c4.93,0.02,8.19,2.97,8.44,7.37
		c0.23,4.09-2.62,8.11-6.8,8.14c-17.33,0.12-34.74,0.92-51.96-0.54c-16.22-1.37-28.83-15.98-31.54-33.34
		c-0.5-3.2-0.78-6.48-0.78-9.72c-0.04-72.75-0.04-145.49-0.03-218.24c0-14.27,4.58-26.6,15.74-35.96c6.2-5.2,13.43-7.86,21.57-7.86
		c99.08-0.01,198.16-0.03,297.24,0.02c17.3,0.01,32.19,13.07,36.11,31.65c0.98,4.67,1.31,9.56,1.32,14.36
		c0.09,53.58,0.04,107.16,0.13,160.74c0,1.89,0.56,4.26,1.77,5.58c9.84,10.79,10.06,18.31,0.43,29.47c1.7,4.26,3.37,8.6,5.19,12.87
		c0.28,0.66,1.29,1.46,1.95,1.45c9.82-0.17,15.63,5.14,19.1,13.73C-331.03,320.76-331.03,328.07-331.03,335.37z M-715.64,147.51
		c113.44,0,226.66,0,340.24,0c0-3.47,0.01-6.7,0-9.93c-0.03-17.86,0.25-35.73-0.2-53.58c-0.39-15.54-10.34-24.72-25.68-24.72
		c-12.78,0-25.55,0-38.33,0c-84.1,0-168.19,0.03-252.29-0.05c-7.35-0.01-13.21,2.5-17.67,8.25c-4.49,5.79-6.27,12.5-6.27,19.74
		c0,18.91-0.01,37.81,0.01,56.72C-715.84,145.06-715.72,146.2-715.64,147.51z M-377.15,391.2c1.66-2.06,3.06-4.11,4.77-5.85
		c6.94-7.07,6.98-7.03,0.24-13.99c-3.8-3.93-3.9-6.62-1.48-11.6c2.77-5.71,5.41-11.54,7.43-17.54c2.39-7.11,3.78-8.51,11.33-8.51
		c9.08,0,8.1,0.66,8.11-8.26c0.02-9.5,0-9.5-9.6-9.78c-5.39-0.16-7.52-2.13-9.3-7.16c-2.21-6.23-4.61-12.43-7.52-18.35
		c-3-6.09-3-8.39,1.72-13.16c6.11-6.17,6.11-6.17,0-12.28c-6.52-6.52-6.52-6.52-13.12-0.11c-4.28,4.16-6.95,4.23-12.23,1.7
		c-6.07-2.91-12.32-5.5-18.68-7.69c-5.64-1.94-7.54-3.98-7.61-10.16c-0.1-8.72-0.1-8.72-8.68-8.72c-9.31,0-9.31,0-9.41,9.21
		c-0.06,5.94-1.9,7.87-7.48,9.79c-6,2.06-11.94,4.43-17.61,7.27c-6.23,3.13-8.51,3.12-13.47-1.75c-6.86-6.74-5.13-6.72-12.07,0.15
		c-6.58,6.51-6.56,6.54-0.18,13.1c4.35,4.48,4.4,6.86,1.67,12.55c-2.8,5.83-5.28,11.85-7.38,17.97c-1.93,5.62-4.03,7.57-10.16,7.65
		c-8.92,0.12-8.96,0.12-8.91,8.87c0.06,10.57-1.18,9.06,9.11,9.17c6.18,0.06,8.06,1.83,10.02,7.68c1.97,5.89,4.29,11.72,7.07,17.26
		c3.23,6.44,3.2,8.68-1.87,13.76c-6.78,6.79-6.52,5,0.09,11.71c6.67,6.77,6.71,6.74,13.65,0.06c3.98-3.83,6.66-3.94,11.6-1.56
		c5.83,2.81,11.78,5.48,17.91,7.55c6.71,2.27,8.35,3.96,8.39,11.14c0.05,9.4-1,8.33,8.37,8.31c10.99-0.03,9.62,1.42,9.71-9.39
		c0-0.26,0-0.52,0-0.78c0.13-5,1.94-7.14,6.72-8.72c5.05-1.67,10.31-3.08,14.93-5.61c9.03-4.95,10.73-7.23,20.24,3.12
		C-380.06,389.05-379.08,389.66-377.15,391.2z"/>
	<path d="M-555.12,248.63c-6.22-7.01-12.19-13.69-18.12-20.41c-3.9-4.41-3.99-9.19-0.31-12.37c3.55-3.06,8.18-2.42,11.97,1.8
		c6.87,7.64,13.73,15.3,20.51,23.03c4.56,5.19,4.6,10.6,0.07,15.77c-6.85,7.83-13.8,15.59-20.75,23.33
		c-3.68,4.09-8.55,4.61-12.01,1.41c-3.38-3.12-3.36-7.8,0.18-11.81C-567.57,262.55-561.49,255.78-555.12,248.63z"/>
	<path d="M-669.49,248.62c5.91,6.64,11.54,12.95,17.15,19.28c0.95,1.07,1.96,2.12,2.72,3.32c2.14,3.35,1.42,7.73-1.57,10.24
		c-2.85,2.39-7.42,2.69-10.01-0.1c-8.14-8.79-16.16-17.72-23.89-26.87c-3.07-3.64-2.61-8.9,0.64-12.67
		c7.32-8.48,14.79-16.85,22.34-25.13c3.18-3.5,7.96-3.62,11.18-0.69c3.2,2.91,3.51,7.66,0.42,11.24
		C-656.64,234.32-662.94,241.26-669.49,248.62z"/>
	<path d="M-596.73,217.2c-1.81,7.65-3.8,16.14-5.82,24.62c-3.13,13.17-6.28,26.33-9.43,39.5c-0.12,0.51-0.29,1-0.44,1.5
		c-1.42,4.69-5.14,7.17-9.35,6.24c-4.42-0.97-6.97-4.98-5.85-9.88c2.92-12.82,6.03-25.59,9.06-38.38
		c2.01-8.49,4.05-16.96,6.05-25.45c0.83-3.56,2.61-6.24,6.36-7.15C-601.18,206.98-596.49,211.03-596.73,217.2z"/>
	<path d="M-462.05,130.34c-11.86,0-23.72,0.18-35.58-0.05c-11.13-0.21-20.71-7.45-24.29-17.79c-3.58-10.34-0.55-21.48,7.85-28.71
		c5.05-4.36,11.01-6.39,17.61-6.4c22.94-0.05,45.88-0.13,68.82,0.02c15.49,0.1,27.06,11.61,27.06,26.48
		c-0.01,14.91-11.6,26.33-27.06,26.48c-11.47,0.11-22.94,0.02-34.41,0.02C-462.05,130.36-462.05,130.35-462.05,130.34z
		 M-461.77,93.21c-11.6,0-23.19-0.12-34.79,0.05c-6.57,0.1-11.16,4.79-11.07,10.73c0.09,5.82,4.57,10.51,10.9,10.55
		c23.19,0.15,46.39,0.11,69.58,0.02c4.51-0.02,8.02-2.2,9.91-6.43c3.25-7.28-1.93-14.75-10.52-14.88
		C-439.09,93.07-450.43,93.2-461.77,93.21z"/>
	<path d="M-563.35,103.78c0.02,14.66-11.92,26.61-26.54,26.56c-14.43-0.05-26.28-11.92-26.37-26.39
		c-0.08-14.53,12.06-26.68,26.59-26.58C-575.2,77.47-563.38,89.33-563.35,103.78z M-589.97,93.26c-5.95,0.11-10.54,4.93-10.39,10.92
		c0.14,5.74,4.9,10.4,10.59,10.38c5.81-0.02,10.73-4.99,10.67-10.79C-579.14,97.92-584.08,93.16-589.97,93.26z"/>
	<path d="M-631.98,103.85c0,14.72-11.9,26.58-26.57,26.49c-14.49-0.09-26.19-11.9-26.2-26.45c-0.01-14.68,11.98-26.66,26.56-26.52
		C-643.67,77.52-631.98,89.33-631.98,103.85z M-647.78,103.84c-0.01-5.93-4.81-10.67-10.73-10.59c-5.76,0.08-10.42,4.73-10.49,10.46
		c-0.07,5.85,4.75,10.82,10.56,10.86C-652.62,114.61-647.77,109.72-647.78,103.84z"/>
	<path d="M-431.57,276.5c26.58,0.13,48.2,21.94,48.01,48.44c-0.19,26.44-22.21,48.1-48.67,47.88
		c-26.34-0.22-47.81-21.98-47.71-48.36C-479.86,297.81-458.23,276.37-431.57,276.5z M-431.66,292.27
		c-17.94-0.05-32.39,14.22-32.48,32.09c-0.1,18.03,14.46,32.71,32.38,32.67c17.73-0.04,32.33-14.63,32.38-32.38
		C-399.32,306.87-413.84,292.32-431.66,292.27z"/>
</g>
<path d="M-67.54-465.9c0,2.99,0,5.99,0,8.98c-1.99,9.61-8.09,16.46-14.84,23.14c-28.57,28.26-56.94,56.73-85.41,85.08
	c-0.95,0.95-2.29,1.51-4.45,2.88c2.37,1.79,3.68,2.57,4.73,3.61c27.49,27.39,54.94,54.84,82.45,82.22
	c7.6,7.57,12.95,16.39,15.65,26.77c0.72,2.76,1.26,5.56,1.88,8.34c0,3.99,0,7.98,0,11.98c-0.25,0.96-0.57,1.9-0.73,2.87
	c-1.94,11.92-7.06,22.28-15.53,30.89c-22.1,22.49-58.01,23.05-80.52,0.89c-28.1-27.67-55.89-55.66-83.78-83.55
	c-1.04-1.04-1.67-2.49-2.5-3.75c-0.58,0.02-1.16,0.05-1.74,0.07c-0.84,1.24-1.5,2.65-2.54,3.69
	c-29.74,29.74-59.51,59.46-89.29,89.16c-14.35,14.31-32.69,14.28-47.05-0.03c-15.29-15.25-30.45-30.62-45.9-45.7
	c-6.73-6.57-12.62-13.44-14.43-22.98c0-2.99,0-5.99,0-8.98c1.97-9.47,7.92-16.28,14.59-22.88c28.68-28.36,57.13-56.93,85.71-85.38
	c0.95-0.94,2.34-1.43,3.68-2.23c-1.93-2.03-2.85-3.03-3.8-3.99c-19.88-19.85-39.73-39.73-59.66-59.52
	c-11.61-11.53-19.53-25.1-23.46-41.01c-3.11-12.57-6.33-25.12-9.58-37.66c-2.43-9.36-4.99-18.7-7.49-28.04c0-2,0-3.99,0-5.99
	c1.76-3.73,4.53-6.46,8.25-8.23c2,0,4,0,6,0c1.02,0.4,2,0.91,3.05,1.18c18.38,4.64,36.68,9.67,55.19,13.75
	c20.91,4.62,38.44,14.36,53.28,29.91c18.01,18.87,36.83,36.97,55.3,55.4c0.93,0.92,1.92,1.79,3.37,3.13
	c0.93-1.23,1.52-2.22,2.31-3.01c28.62-28.59,57.33-57.09,85.83-85.79c6.61-6.66,13.43-12.6,22.92-14.57c3,0,6,0,9,0
	c9.53,1.82,16.44,7.64,23.01,14.37c13.76,14.09,27.71,28,41.82,41.75C-75.4-482.5-69.35-475.58-67.54-465.9z M-203.28-346.19
	c5.94-5.94,11.61-11.61,17.38-17.37c-10.66-10.64-21.63-21.56-32.58-32.51c-5.37-5.37-5.83-12.2-1.19-16.91
	c4.74-4.81,11.47-4.49,16.93,0.92c10.2,10.11,20.34,20.27,30.52,30.41c0.93,0.92,1.9,1.8,2.22,2.11
	c5.96-5.93,11.58-11.52,17.37-17.3c-5.25-5.21-10.81-10.77-16.42-16.27c-2.74-2.69-4.26-5.85-3.83-9.72
	c0.49-4.48,2.88-7.68,7.09-9.31c4.53-1.75,8.66-0.72,12.07,2.62c5.87,5.74,11.62,11.59,17.09,17.07
	c5.88-5.86,11.51-11.48,17.72-17.67c-1-0.81-2.35-1.72-3.48-2.84c-10.1-10.03-20.23-20.04-30.22-30.18
	c-6.15-6.23-4.37-15.87,3.4-18.75c4.97-1.85,9.25-0.43,12.95,3.3c10.12,10.18,20.31,20.31,30.47,30.45
	c0.93,0.93,1.91,1.82,2.78,2.65c0.59-0.35,0.83-0.45,1-0.61c2.84-2.81,5.7-5.6,8.5-8.45c4.67-4.76,4.69-9.23-0.06-13.98
	c-16.86-16.87-33.74-33.71-50.65-50.54c-5.08-5.06-9.41-5.02-14.53,0.09c-88.83,88.64-177.65,177.29-266.47,265.94
	c-5.24,5.23-5.21,9.48,0.07,14.77c11.56,11.57,23.15,23.11,34.73,34.67c5.39,5.38,10.74,10.81,16.19,16.12
	c3.77,3.67,8.21,4.23,11.77,1.12c3.82-3.34,7.24-7.13,10.96-10.84c-1.03-1.09-1.85-2.01-2.72-2.88c-4.94-4.95-10.01-9.77-14.8-14.87
	c-5.86-6.23-3.41-16.01,4.53-18.48c4.59-1.43,8.61-0.14,11.97,3.25c5.6,5.65,11.21,11.28,16.62,16.73
	c5.99-5.98,11.62-11.6,17.83-17.81c-0.82-0.6-2.07-1.27-3.03-2.23c-10.11-10.02-20.18-20.08-30.24-30.15
	c-5.33-5.33-5.73-12.24-1.04-16.91c4.78-4.77,11.45-4.38,16.93,1.07c10.01,9.95,20,19.91,29.94,29.92c1.04,1.05,1.68,2.48,2.4,3.58
	c6.48-6.5,12.09-12.12,17.86-17.91c-0.67-0.72-1.48-1.64-2.35-2.5c-4.94-4.95-10-9.79-14.81-14.85c-6.27-6.6-3.34-16.77,5.34-18.86
	c4.26-1.03,7.87,0.38,10.9,3.41c5.69,5.7,11.38,11.42,16.63,16.68c5.97-5.94,11.6-11.54,17.36-17.27c-0.61-0.64-1.44-1.56-2.31-2.43
	c-10.07-10.06-20.22-20.05-30.16-30.23c-1.83-1.88-3.44-4.39-4.12-6.89c-1.33-4.91,1.16-9.7,5.46-12.01c4.46-2.4,9.8-1.6,13.75,2.31
	c10.39,10.27,20.69,20.63,31.03,30.95c0.93,0.93,1.92,1.79,2.47,2.31c5.8-5.77,11.26-11.21,16.89-16.81
	c-0.61-0.66-1.42-1.58-2.28-2.44c-4.94-4.95-10-9.78-14.8-14.86c-5.9-6.25-3.56-15.94,4.4-18.51c4.58-1.48,8.61-0.25,11.99,3.16
	C-214.18-357.1-208.55-351.47-203.28-346.19z M-187.99-234.08c16.15-16.11,32.21-32.14,48.04-47.92
	c-15.59-15.55-31.35-31.27-46.73-46.61c-15.89,15.86-32.01,31.95-48.02,47.93C-219.28-265.31-203.58-249.64-187.99-234.08z
	 M-123.11-265.11c-15.88,15.84-32,31.93-47.69,47.58c7.94,8.22,15.67,17.29,24.51,25.12c13.25,11.74,33.79,10.32,46.24-2.26
	c12.49-12.62,13.66-33.05,1.83-46.19C-106.04-249.54-114.96-257.25-123.11-265.11z M-387.84-433.2
	c16.26-16.23,32.39-32.32,48.56-48.45c-10.2-11.88-22.37-21.33-38.45-25.09c-14.81-3.46-29.52-7.37-44.27-11.07
	c-0.76-0.19-1.57-0.2-2.71-0.34c4.5,17.52,8.67,34.69,13.35,51.73C-407.52-452.4-398.02-442.19-387.84-433.2z M-332.63-378.6
	c16.1-16.04,32.24-32.12,48.08-47.9c-12.57-12.56-25.45-25.42-38.1-38.06c-15.97,15.93-32.1,32.02-48.02,47.89
	C-357.99-403.97-345.13-391.1-332.63-378.6z"/>
<g>
	<path d="M376.17-321.8c-121.87-0.05-243.74-0.04-365.61-0.06c-1.36,0-2.78-0.02-4.08-0.37c-3.01-0.81-4.62-2.96-4.62-6.03
		c0-3.07,1.6-5.24,4.62-6.02c1.42-0.37,2.96-0.37,4.45-0.37c121.62-0.02,243.24,0,364.87-0.07c3.48,0,6.38,0.64,8.51,3.2
		c1.57,1.89,1.52,4.71-0.06,6.59C382.22-322.52,379.49-321.8,376.17-321.8z"/>
	<path d="M52.82-246.83c0-15.72-0.01-31.43,0-47.15c0.01-6.64,2.12-8.75,8.71-8.77c4.99-0.01,9.98-0.02,14.97,0
		c6.14,0.03,8.33,2.2,8.34,8.36c0.01,30.93-0.03,61.87,0.03,92.8c0.02,12.87,8.48,23.5,20.49,26.04
		c15.28,3.23,30.13-8.26,30.41-23.93c0.28-16.09,0.09-32.18,0.1-48.27c0.01-15.47-0.01-30.93,0.01-46.4c0.01-6.41,2.16-8.58,8.5-8.6
		c5.36-0.02,10.73-0.06,16.09,0.01c4.96,0.07,7.41,2.44,7.42,7.39c0.03,31.93,0.39,63.87-0.13,95.79
		c-0.48,29.17-24.33,54.14-52.62,56.25c-30.08,2.25-55.85-17.62-61.38-47.46c-0.68-3.65-0.87-7.44-0.89-11.17
		C52.77-216.89,52.82-231.86,52.82-246.83z"/>
	<path d="M52.83-457.38c0-15.84-0.02-31.68,0-47.52c0.01-6.46,2.07-8.53,8.49-8.57c4.86-0.03,9.73-0.02,14.59,0
		c7,0.02,8.93,1.93,8.93,8.84c0.01,30.81-0.03,61.61,0.03,92.42c0.02,12.07,7.65,22.26,18.83,25.48
		c15.69,4.52,31.85-7.22,32.07-23.7c0.27-20.57,0.09-41.16,0.1-61.73c0-10.98-0.01-21.95,0.01-32.93c0.01-6.19,2.12-8.32,8.3-8.37
		c5.36-0.04,10.73-0.07,16.09,0.01c5.3,0.08,7.62,2.32,7.62,7.51c0.03,31.68,0.31,63.36-0.09,95.03
		c-0.4,31.88-27.81,57.99-59.18,57.1c-30.75-0.87-55.35-26-55.75-57.18C52.67-426.45,52.83-441.91,52.83-457.38z"/>
	<path d="M269.9-143.04c-18.21,0-36.41,0.01-54.62,0c-7.23,0-9.1-1.88-9.11-9.03c-0.01-4.86-0.02-9.73,0-14.59
		c0.02-6.16,2.11-8.22,8.38-8.22c11.35-0.02,22.7,0.01,34.04-0.01c6.52-0.01,8.63-2.03,8.63-8.39c0.02-26.44,0.02-52.87,0-79.31
		c0-6.06-2.05-8.09-8.05-8.1c-11.47-0.02-22.95,0.01-34.42-0.01c-6.42-0.01-8.56-2.14-8.58-8.5c-0.02-5.36-0.05-10.73,0.01-16.09
		c0.06-4.96,2.43-7.42,7.37-7.42c37.66-0.04,75.32-0.04,112.98,0c4.94,0,7.36,2.43,7.45,7.38c0.1,5.61,0.08,11.22,0.01,16.83
		c-0.07,5.39-2.44,7.76-7.82,7.79c-11.72,0.05-23.44,0-35.17,0.02c-6.03,0.01-8.16,2.06-8.17,8.06c-0.03,26.56-0.04,53.12,0,79.69
		c0.01,5.85,2.32,8.04,8.27,8.05c11.6,0.03,23.19-0.01,34.79,0.02c5.92,0.01,8.06,2.18,8.1,8.17c0.04,5.24,0.05,10.48,0,15.71
		c-0.06,5.68-2.26,7.93-7.98,7.95C307.31-143.02,288.6-143.04,269.9-143.04z"/>
	<path d="M214.6-353.76c-2.37,0-4.74-0.04-7.11,0.01c-2.95,0.06-5.49-0.72-6.9-3.52c-1.39-2.76-0.62-5.24,1.11-7.66
		c12.61-17.65,25.18-35.34,37.76-53.02c2.46-3.45,4.92-6.91,7.37-10.37c3.08-4.35,3.09-6.38-0.05-10.78
		c-14.67-20.63-29.35-41.24-44.03-61.87c-0.65-0.91-1.35-1.8-1.89-2.78c-2.44-4.38-0.03-9.33,4.97-9.57
		c5.85-0.29,11.75-0.41,17.56,0.12c2.07,0.19,4.5,2.12,5.82,3.94c10.42,14.31,20.61,28.8,30.88,43.22
		c4.78,6.71,8.78,6.69,13.59-0.06c10.2-14.32,20.44-28.61,30.53-43.01c2.15-3.08,4.69-4.53,8.44-4.39
		c4.48,0.17,8.98,0.08,13.47,0.03c2.91-0.03,5.5,0.56,7.01,3.34c1.59,2.93,0.55,5.46-1.23,7.97
		c-14.84,20.81-29.65,41.65-44.46,62.48c-3.84,5.4-3.85,6.67-0.07,11.98c14.67,20.63,29.32,41.27,44.02,61.88
		c1.89,2.65,3.51,5.28,1.77,8.57c-1.72,3.25-4.78,3.59-8.05,3.52c-4.11-0.09-8.24-0.17-12.35,0.02c-3.76,0.17-6.31-1.34-8.45-4.39
		c-10.18-14.49-20.48-28.89-30.76-43.31c-4.65-6.53-8.67-6.5-13.34,0.05c-9.76,13.71-19.69,27.31-29.18,41.22
		c-3.25,4.77-6.91,7.27-12.68,6.41C217.12-353.92,215.85-353.76,214.6-353.76z"/>
</g>
</svg>
