<?xml version="1.0" encoding="utf-8"?>
<!-- Generator: Adobe Illustrator 24.0.2, SVG Export Plug-In . SVG Version: 6.00 Build 0)  -->
<svg version="1.0" id="Capa_1" xmlns="http://www.w3.org/2000/svg" xmlns:xlink="http://www.w3.org/1999/xlink" x="0px" y="0px"
	 viewBox="0 0 395 390" style="enable-background:new 0 0 395 390;" xml:space="preserve">
<style type="text/css">
	.st0{fill:#390000;}
	.st1{fill:#FE9900;}
</style>
<g>
	<path class="st0" d="M5.74,322.94c0-85.3,0-170.6,0-255.91c0.75-8.52,2.95-16.57,7.21-24.08C24.81,22.04,42.73,10.35,66.49,7.33
		c6.46-0.82,12.94-0.71,19.41-0.71c77.18,0,154.36-0.03,231.54,0.02c16.1,0.01,31.06,3.9,44.28,13.58
		c13.44,9.83,22,22.91,26.2,38.89c1.17,4.46,1.23,9.13,1.23,13.73c0.04,81.43-0.11,162.85,0.11,244.28
		c0.08,28.15-19.85,52.31-43.24,61.25c-9.11,3.48-18.58,4.93-28.21,4.94c-80.3,0.09-160.59,0.12-240.89,0.01
		c-23.49-0.03-43.43-8.29-58.08-27.23c-7.11-9.2-12.15-19.43-12.72-31.37C6.09,324.1,6.15,323.47,5.74,322.94z"/>
	<path class="st1" d="M161.38,103.79c6.11,0,12.22,0.1,18.32-0.05c2.46-0.06,3.82,0.63,4.69,3.1
		c18.97,53.74,38.01,107.45,57.02,161.18c1.28,3.61,0.93,4.04-3.02,4.05c-9.97,0.02-19.95-0.06-29.92,0.05
		c-2.56,0.03-3.78-0.93-4.58-3.32c-3.67-10.98-7.56-21.88-11.21-32.86c-0.86-2.58-1.97-3.68-4.92-3.65
		c-17.45,0.16-34.9,0.15-52.35,0.01c-2.79-0.02-3.85,0.94-4.64,3.47c-3.35,10.81-7.03,21.53-10.33,32.36
		c-0.95,3.1-2.52,4.07-5.63,4.01c-8.47-0.17-16.95-0.05-25.43-0.06c-4.88-0.01-5.19-0.45-3.53-5.21
		c13.06-37.62,26.14-75.22,39.2-112.84c3.96-11.4,7.85-22.82,11.81-34.23c1.36-3.92,2.19-7.96,2.01-12.09
		c-0.14-3.22,1.17-4.06,4.18-3.97C149.16,103.92,155.27,103.79,161.38,103.79z"/>
	<path class="st1" d="M294.6,208.68c0,19.57-0.09,39.13,0.08,58.7c0.03,3.74-0.98,5.01-4.83,4.9c-8.96-0.26-17.94-0.18-26.91-0.03
		c-3.14,0.05-4.16-1.21-4.15-4.19c0.04-39.88,0.05-79.76-0.01-119.64c0-2.96,1.11-3.87,3.98-3.83c9.22,0.13,18.44,0.17,27.66-0.02
		c3.3-0.07,4.27,1.03,4.25,4.29C294.53,168.8,294.6,188.74,294.6,208.68z"/>
	<path class="st1" d="M296.83,110.77c0.02,11.9-8.1,20.41-19.52,20.45c-11.92,0.04-20.16-8.21-20.18-20.17
		c-0.01-11.46,8.54-19.99,20.06-20C288.91,91.03,296.81,98.97,296.83,110.77z"/>
	<path class="st0" d="M161.77,134.78c4.09,13.27,8.18,26.53,12.26,39.81c2.34,7.61,4.57,15.25,7,22.82
		c0.65,2.03,0.34,2.64-1.82,2.63c-11.71-0.06-23.41-0.1-35.12,0.02c-3.54,0.04-2.31-1.84-1.79-3.55
		c5.75-19.04,11.51-38.08,17.26-57.12c0.46-1.53,0.95-3.05,1.43-4.57C161.25,134.8,161.51,134.79,161.77,134.78z"/>
</g>
</svg>
