<?xml version="1.0" encoding="utf-8"?>
<!-- Generator: Adobe Illustrator 24.0.2, SVG Export Plug-In . SVG Version: 6.00 Build 0)  -->
<svg version="1.0" id="Capa_1" xmlns="http://www.w3.org/2000/svg" xmlns:xlink="http://www.w3.org/1999/xlink" x="0px" y="0px"
	 viewBox="0 0 395 390" style="enable-background:new 0 0 395 390;" xml:space="preserve">
<style type="text/css">
	.st0{fill:#001834;}
	.st1{fill:#00A8FE;}
</style>
<g>
	<path class="st0" d="M389.26,67.55c0,85.22,0,170.44,0,255.66c-0.76,8.53-2.83,16.63-7.13,24.15
		c-11.85,20.74-29.54,32.63-53.18,35.66c-6.57,0.84-13.17,0.82-19.78,0.82c-76.93-0.02-153.86,0.01-230.8-0.03
		c-16.47-0.01-31.83-3.76-45.36-13.78c-13.17-9.75-21.63-22.63-25.88-38.34c-1.24-4.58-1.28-9.4-1.29-14.12
		C5.8,235.85,5.94,154.14,5.74,72.43c-0.07-28.41,19.9-52.38,43.31-61.27c9.11-3.46,18.54-4.94,28.2-4.95
		c80.3-0.04,160.6-0.09,240.9,0.02c23.65,0.03,43.65,8.47,58.29,27.62c7.23,9.46,12.3,19.97,12.44,32.27
		C388.89,66.64,388.95,67.13,389.26,67.55z"/>
	<path class="st1" d="M126.01,104.06c14.46-1.33,28.9-1.61,43.15,1.71c40.46,9.43,58.12,57.88,32.86,90.3
		c-9.82,12.6-23.23,18.79-38.61,21.42c-10.64,1.82-21.35,1.89-32.06,1.34c-3.72-0.19-4.53,0.96-4.48,4.52
		c0.2,14.86,0,29.73,0.15,44.6c0.03,3.44-1.05,4.56-4.51,4.47c-8.47-0.22-16.96-0.26-25.43,0.01c-3.83,0.12-4.85-1.12-4.84-4.88
		c0.11-49.97,0.08-99.94,0.08-149.92c0-3.37,0.11-6.75-0.04-10.12c-0.11-2.59,0.84-3.53,3.45-3.5
		C105.83,104.13,115.92,104.06,126.01,104.06z"/>
	<path class="st1" d="M230.05,251.61c0-4-0.04-7.99,0.01-11.99c0.05-3.75,0.54-4.03,3.83-2.26c12.13,6.49,25.1,9.42,38.8,9.29
		c3.25-0.03,6.46-0.52,9.57-1.49c3.05-0.95,5.3-2.8,5.94-6.09c0.63-3.24-1.06-5.53-3.37-7.43c-3.81-3.14-8.41-4.83-12.92-6.59
		c-8.36-3.27-16.52-6.88-24.14-11.73c-25.74-16.42-21.24-51.33,2.9-64.02c11.35-5.97,23.5-7.07,35.94-6.44
		c8.45,0.43,16.85,1.24,25.02,3.88c3.66,1.18,4.86,3.17,4.78,6.79c-0.16,7.12-0.02,14.24-0.06,21.36c-0.03,4.48-1.11,5.13-5.2,3.27
		c-11.93-5.45-24.44-7.5-37.47-6.38c-1.6,0.14-3.22,0.48-4.73,1.02c-5.6,1.98-7,7.98-2.85,12.28c3.29,3.42,7.69,5.04,11.9,6.87
		c8.78,3.82,17.78,7.08,26.12,11.96c13.39,7.83,19.91,19.19,18.57,34.76c-1.26,14.62-9.03,24.85-21.99,31.13
		c-11.16,5.4-23.21,6.51-35.39,5.94c-10.72-0.51-21.3-1.99-31.36-6.18c-2.83-1.18-4.11-2.8-3.95-5.91
		C230.2,259.61,230.05,255.61,230.05,251.61z"/>
	<path class="st0" d="M139.41,134.76c6.86-0.42,13.71-0.31,20.35,1.72c16.07,4.91,23.47,21.65,16.21,36.86
		c-3.22,6.76-9.16,10.32-15.9,12.73c-9.98,3.55-20.35,2.98-30.68,2.76c-1.56-0.03-2.16-0.74-2.16-2.32
		c0.03-16.47,0.04-32.95-0.01-49.42c-0.01-1.9,0.88-2.35,2.49-2.34C132.94,134.78,136.18,134.76,139.41,134.76z"/>
</g>
</svg>
