<?xml version="1.0" encoding="utf-8"?>
<!-- Generator: Adobe Illustrator 24.0.2, SVG Export Plug-In . SVG Version: 6.00 Build 0)  -->
<svg version="1.0" id="Capa_1" xmlns="http://www.w3.org/2000/svg" xmlns:xlink="http://www.w3.org/1999/xlink" x="0px" y="0px"
	 viewBox="0 0 395 390" style="enable-background:new 0 0 395 390;" xml:space="preserve">
<style type="text/css">
	.st0{fill:#00005B;}
	.st1{fill:#9898FE;}
</style>
<g>
	<path class="st0" d="M389.27,67.55c0,85.22,0,170.44,0,255.66c-0.76,8.52-2.8,16.62-7.1,24.15
		c-11.85,20.74-29.52,32.63-53.16,35.67c-6.57,0.84-13.17,0.83-19.78,0.83c-76.92-0.02-153.83,0.01-230.75-0.03
		c-16.6-0.01-32.08-3.79-45.67-13.93C19.8,360.2,11.4,347.41,7.17,331.84c-1.28-4.7-1.31-9.64-1.31-14.49
		C5.81,235.78,5.99,154.21,5.73,72.64c-0.09-29.15,20.65-53.29,44.14-61.8c8.92-3.23,18.1-4.65,27.5-4.65
		c80.28-0.05,160.56-0.1,240.85,0.02c23.34,0.03,43.17,8.28,57.81,27.05c7.49,9.6,12.71,20.29,12.87,32.86
		C388.9,66.64,388.96,67.13,389.27,67.55z"/>
	<path class="st1" d="M97.23,187.98c0-26.11,0-52.22,0-78.34c0-6.21-0.25-5.5,5.33-5.61c14.71-0.3,29.41-0.82,44.12-0.98
		c12.9-0.14,25.63,1.05,37.68,6.27c24.39,10.57,34.84,31.29,33.3,54.94c-1.72,26.56-17.7,45.61-42.29,51.73
		c-11.48,2.86-23.15,3.35-34.89,3.06c-8.63-0.22-8.63-0.21-8.63,8.6c0,13.49-0.09,26.99,0.06,40.48c0.04,3.29-1.02,4.37-4.3,4.3
		c-8.72-0.18-17.46-0.2-26.18,0.01c-3.3,0.08-4.27-0.95-4.26-4.24C97.29,241.45,97.23,214.72,97.23,187.98z"/>
	<path class="st1" d="M273.52,160.61c1.81-0.53,2.5-1.96,3.54-2.94c10.12-9.58,21.76-15.65,35.97-16.18c3.1-0.12,4.24,0.87,4.2,3.99
		c-0.12,9.12-0.15,18.24,0.01,27.36c0.06,3.22-1.28,4.11-4.24,4.03c-9.72-0.25-19.07,1.65-28.03,5.41
		c-1.15,0.48-2.25,1.06-3.35,1.65c-4.14,2.2-6.13,5.12-6.06,10.35c0.34,24.48,0.09,48.97,0.22,73.45c0.02,3.51-0.84,4.83-4.56,4.73
		c-8.97-0.25-17.95-0.22-26.92-0.01c-3.62,0.08-4.7-1.14-4.69-4.74c0.11-31.35,0.1-62.71-0.01-94.06
		c-0.03-8.61-0.43-17.23-0.86-25.84c-0.13-2.69,0.41-3.83,3.38-3.77c8.1,0.17,16.21,0.13,24.31,0.02c3.15-0.04,4.84,1.26,5.54,4.32
		C272.86,152.35,273.35,156.38,273.52,160.61z"/>
	<path class="st0" d="M131.93,161.69c0-8,0.02-15.99-0.02-23.99c-0.01-1.64,0.02-2.95,2.23-2.95c8.34-0.01,16.72-0.9,25.01,0.45
		c15.11,2.46,23.51,11.46,23.79,25.22c0.29,14.16-7.85,23.71-22.91,27.01c-8.37,1.84-16.84,1.55-25.31,1.45
		c-2.35-0.03-2.87-1.04-2.84-3.22C132,177.68,131.93,169.68,131.93,161.69z"/>
</g>
</svg>
